<?xml version="1.0" encoding="utf-8"?>
<!-- Generator: Adobe Illustrator 27.9.6, SVG Export Plug-In . SVG Version: 9.03 Build 54986)  -->
<svg version="1.1" id="Capa_1" xmlns="http://www.w3.org/2000/svg" xmlns:xlink="http://www.w3.org/1999/xlink" x="0px" y="0px"
	 viewBox="0 0 800 800" style="enable-background:new 0 0 800 800;" xml:space="preserve">
<style type="text/css">
	.st0{fill:#FFFFFF;}
	.st1{fill:#EFEFEF;}
</style>
<g>
	<g>
		<path class="st0" d="M311.2,498.6c3.4,10.7,13.4,17.8,24.6,17.8h128.4c11.2,0,21.1-7.2,24.6-17.8l39.7-122.1
			c3.4-10.7-0.3-22.3-9.4-28.9l-103.8-75.6c-9-6.5-21.4-6.5-30.4,0l-103.9,75.5c-9,6.5-12.8,18.3-9.4,28.9L311.2,498.6z"/>
		<path class="st1" d="M117.2,682.8c36.7,36.7,79.5,65.6,127.2,85.7C293.7,789.4,346.1,800,400,800s106.4-10.6,155.7-31.4
			c47.6-20.2,90.4-49,127.2-85.7c36.7-36.7,65.6-79.5,85.7-127.2C789.4,506.3,800,453.9,800,400c0-54-10.6-106.4-31.4-155.7
			c-20.2-47.6-49-90.4-85.7-127.2c-36.7-36.7-79.5-65.6-127.2-85.7C506.4,10.6,454,0,400,0S293.6,10.6,244.3,31.4
			c-47.6,20.2-90.5,49-127.2,85.7s-65.6,79.5-85.7,127.2C10.6,293.6,0,346.1,0,400c0,54,10.6,106.4,31.4,155.7
			C51.6,603.4,80.5,646.1,117.2,682.8z M162.8,162.8c35-35,76.3-61.3,121.5-77.8l-9,19.6c-5.9,12.7-0.6,27.8,11.9,34l100.4,50
			c7.3,3.6,15.9,3.6,23.2-0.1l99.9-50.7c12.6-6.4,17.7-21.5,11.7-34.2l-9.2-19.5c46.1,16.5,88.4,43.1,124.1,78.7
			c6.8,6.8,13.3,13.8,19.4,21l-21.3-1.9c-14-1.2-26.4,8.9-27.9,22.8l-12.8,111.4c-0.9,8.1,2.1,16.2,8,21.8l81.8,76.7
			c10.3,9.6,26.2,9.3,36.1-0.7l15-15.2c0,0.3,0,0.8,0,1.1c0,65.6-18.7,128.4-53.6,182.1l-4.5-21c-2.9-13.7-16.2-22.6-30-20
			l-110.3,20.4c-8,1.5-14.9,6.7-18.5,14l-49.4,100.7c-6.2,12.6-1.2,27.7,11.2,34.3l19,10c-31.8,9.8-65.3,14.9-99.5,14.9
			s-67.7-5.1-99.5-14.9l19-10c12.4-6.5,17.4-21.7,11.2-34.3l-49.4-100.6c-3.6-7.3-10.4-12.6-18.5-14l-110.3-20.4
			c-13.8-2.6-27.1,6.3-30,20l-4.5,21C83.2,528.4,64.5,465.6,64.5,400c0-0.3,0-0.8,0-1.1l15,15.2c9.8,10,25.8,10.3,36.1,0.7
			l81.8-76.7c5.9-5.6,9-13.7,8-21.8l-12.8-111.4c-1.6-14-14-24-27.9-22.8l-21.3,1.9C149.6,176.7,156,169.6,162.8,162.8z"/>
	</g>
</g>
</svg>
