<?xml version="1.0" encoding="utf-8"?>
<!-- Generator: Adobe Illustrator 27.9.6, SVG Export Plug-In . SVG Version: 9.03 Build 54986)  -->
<svg version="1.1" id="Capa_1" xmlns="http://www.w3.org/2000/svg" xmlns:xlink="http://www.w3.org/1999/xlink" x="0px" y="0px"
	 viewBox="0 0 800 800" style="enable-background:new 0 0 800 800;" xml:space="preserve">
<style type="text/css">
	.st0{fill:#FFFFFF;}
	.st1{fill:#EFEFEF;}
	.st2{fill:none;stroke:#FFD400;stroke-width:40;stroke-miterlimit:10;}
</style>
<g>
	<g>
		<path class="st0" d="M334.6,474.5c2.7,8.3,10.3,13.8,19,13.8h99.2c8.7,0,16.3-5.6,19-13.8l30.7-94.3c2.7-8.3-0.3-17.2-7.3-22.3
			L415,299.5c-7-5.1-16.5-5.1-23.5,0l-80.3,58.3c-7,5.1-9.9,14.1-7.3,22.3L334.6,474.5z"/>
		<path class="st1" d="M184.8,616.7c28.4,28.4,61.4,50.6,98.2,66.2c38.1,16.1,78.6,24.3,120.3,24.3s82.2-8.2,120.3-24.3
			c36.8-15.6,69.8-37.9,98.2-66.2c28.4-28.4,50.6-61.4,66.2-98.2c16.1-38.1,24.3-78.6,24.3-120.3c0-41.7-8.2-82.2-24.3-120.3
			c-15.6-36.8-37.9-69.8-66.2-98.2c-28.4-28.4-61.4-50.6-98.2-66.2C485.4,97.4,445,89.2,403.2,89.2s-82.2,8.2-120.3,24.3
			c-36.8,15.6-69.9,37.9-98.2,66.2s-50.6,61.4-66.2,98.2c-16.1,38.1-24.3,78.6-24.3,120.3c0,41.7,8.2,82.2,24.3,120.3
			C134.1,555.4,156.4,588.4,184.8,616.7z M220,215c27-27,59-47.3,93.8-60.1l-7,15.1c-4.6,9.8-0.5,21.5,9.2,26.3l77.5,38.6
			c5.7,2.8,12.3,2.8,17.9-0.1l77.2-39.2c9.7-4.9,13.7-16.6,9.1-26.4l-7.1-15c35.6,12.7,68.3,33.3,95.8,60.8
			c5.3,5.3,10.2,10.6,15,16.2l-16.4-1.5c-10.8-0.9-20.4,6.9-21.6,17.6l-9.9,86.1c-0.7,6.3,1.6,12.5,6.2,16.8l63.2,59.2
			c7.9,7.4,20.2,7.2,27.9-0.5l11.6-11.7c0,0.3,0,0.6,0,0.9c0,50.6-14.4,99.2-41.4,140.7l-3.5-16.2c-2.3-10.6-12.5-17.4-23.2-15.4
			L509.2,523c-6.2,1.1-11.5,5.2-14.3,10.8l-38.1,77.8c-4.8,9.7-0.9,21.4,8.7,26.5l14.7,7.7c-24.6,7.6-50.4,11.5-76.9,11.5
			s-52.3-3.9-76.9-11.5l14.7-7.7c9.6-5,13.4-16.8,8.7-26.5l-38.1-77.7c-2.8-5.7-8.1-9.7-14.3-10.8l-85.2-15.8
			c-10.6-2-20.9,4.9-23.2,15.4l-3.5,16.2c-27-41.5-41.4-90-41.4-140.7c0-0.3,0-0.6,0-0.9l11.6,11.7c7.6,7.7,20,7.9,27.9,0.5
			l63.2-59.2c4.6-4.3,6.9-10.6,6.2-16.8l-9.8-86.1c-1.2-10.8-10.8-18.6-21.6-17.6l-16.4,1.5C209.8,225.7,214.8,220.3,220,215z"/>
	</g>
</g>
<circle class="st2" cx="403.2" cy="398.2" r="354.5"/>
</svg>
